<?xml version="1.0" encoding="UTF-8"?><svg xmlns="http://www.w3.org/2000/svg" xmlns:xlink="http://www.w3.org/1999/xlink" contentScriptType="text/ecmascript" zoomAndPan="magnify" contentStyleType="text/css" style="stroke-opacity: 1.0;" version="1.0" width="48" fill="none" preserveAspectRatio="xMidYMid meet" viewBox="0 0 48 48" height="48" opacity="1.0">
<path fill="#41EAD4" fill-opacity="1.0" stroke-miterlimit="2" stroke-width="2.0" d="M27 24C29.7614 24 32 21.7614 32 19C32 16.2386 29.7614 14 27 14C24.2386 14 22 16.2386 22 19C22 21.7614 24.2386 24 27 24Z" stroke="#41EAD4"/>
<path stroke-miterlimit="2" d="M23 29L21 36L12 33L8 44" stroke-width="2.0" stroke-linejoin="round" stroke-linecap="round" stroke="#41EAD4"/>
<path stroke-miterlimit="2" d="M21 36L22.49 42.48C22.71 43.37 23.51 44 24.43 44H35.01" stroke-width="2.0" stroke-linejoin="round" stroke-linecap="round" stroke="#41EAD4"/>
<path stroke-miterlimit="2" d="M7 23L23 29L14 20L13 11" stroke-width="2.0" stroke-linejoin="round" stroke-linecap="round" stroke="#41EAD4"/>
<path stroke-miterlimit="2" d="M12 4C14 4 14.69 4 17 4C29 4 44 5.45 44 32" stroke-width="2.0" stroke-linejoin="round" stroke-linecap="round" stroke="#41EAD4"/>
</svg>