<?xml version="1.0" encoding="UTF-8"?><svg xmlns="http://www.w3.org/2000/svg" xmlns:xlink="http://www.w3.org/1999/xlink" contentScriptType="text/ecmascript" zoomAndPan="magnify" contentStyleType="text/css" style="stroke-opacity: 1.0;" version="1.0" width="48" fill="none" preserveAspectRatio="xMidYMid meet" viewBox="0 0 48 48" height="48" opacity="1.0">
<path fill="#41EAD4" fill-opacity="1.0" stroke-width="2.0" d="M32 18H16C9.37258 18 4 23.3726 4 30C4 36.6274 9.37258 42 16 42H32C38.6274 42 44 36.6274 44 30C44 23.3726 38.6274 18 32 18Z" stroke-linejoin="round" stroke="#41EAD4"/>
<path d="M16 26V34" stroke-width="2.0" stroke-linejoin="round" stroke-linecap="round" stroke="white"/>
<path d="M12 30H20" stroke-width="2.0" stroke-linejoin="round" stroke-linecap="round" stroke="white"/>
<path d="M24 16V9.71429H32V4" stroke-width="2.0" stroke-linejoin="round" stroke-linecap="round" stroke="#41EAD4"/>
<path fill="white" fill-opacity="1.0" stroke-width="2.0" d="M32 34C34.2091 34 36 32.2091 36 30C36 27.7909 34.2091 26 32 26C29.7909 26 28 27.7909 28 30C28 32.2091 29.7909 34 32 34Z" stroke-linejoin="round" stroke="white"/>
</svg>