<?xml version="1.0" encoding="UTF-8"?><svg xmlns="http://www.w3.org/2000/svg" xmlns:xlink="http://www.w3.org/1999/xlink" contentScriptType="text/ecmascript" zoomAndPan="magnify" contentStyleType="text/css" style="stroke-opacity: 1.0;" version="1.0" width="48" fill="none" preserveAspectRatio="xMidYMid meet" viewBox="0 0 48 48" height="48" opacity="1.0">
<path fill="#C8C8C8" fill-opacity="1.0" stroke-width="2.0" d="M36 4H12C7.58172 4 4 7.58172 4 12C4 16.4183 7.58172 20 12 20H36C40.4183 20 44 16.4183 44 12C44 7.58172 40.4183 4 36 4Z" stroke-linejoin="round" stroke="#C8C8C8"/>
<path fill="#C8C8C8" fill-opacity="1.0" stroke-width="2.0" d="M36 28H12C7.58172 28 4 31.5817 4 36C4 40.4183 7.58172 44 12 44H36C40.4183 44 44 40.4183 44 36C44 31.5817 40.4183 28 36 28Z" stroke-linejoin="round" stroke="#C8C8C8"/>
<path fill="white" fill-opacity="1.0" stroke-width="2.0" d="M36 14C37.1046 14 38 13.1046 38 12C38 10.8954 37.1046 10 36 10C34.8954 10 34 10.8954 34 12C34 13.1046 34.8954 14 36 14Z" stroke-linejoin="round" stroke="white"/>
<path fill="white" fill-opacity="1.0" stroke-width="2.0" d="M12 38C13.1046 38 14 37.1046 14 36C14 34.8954 13.1046 34 12 34C10.8954 34 10 34.8954 10 36C10 37.1046 10.8954 38 12 38Z" stroke-linejoin="round" stroke="white"/>
</svg>