<?xml version="1.0" encoding="UTF-8"?><svg xmlns="http://www.w3.org/2000/svg" xmlns:xlink="http://www.w3.org/1999/xlink" contentScriptType="text/ecmascript" zoomAndPan="magnify" contentStyleType="text/css" style="stroke-opacity: 1.0;" version="1.0" width="48" fill="none" preserveAspectRatio="xMidYMid meet" viewBox="0 0 48 48" height="48" opacity="1.0">
<path fill="#41EAD4" fill-opacity="1.0" stroke-width="2.0" d="M4 33C4 31.8954 4.89543 31 6 31H12V24L24 16L36 24V31H42C43.1046 31 44 31.8954 44 33V42C44 43.1046 43.1046 44 42 44H4V33Z" stroke-linejoin="round" stroke="#41EAD4"/>
<path d="M24 6V16" stroke-width="2.0" stroke-linecap="round" stroke="#41EAD4"/>
<path d="M36 11.9998V5.99984C36 5.99984 34.5 8.99984 30 5.99984C25.5 2.99984 24 5.99984 24 5.99984V11.9998C24 11.9998 25.5 8.99984 30 11.9998C34.5 14.9998 36 11.9998 36 11.9998Z" stroke-width="2.0" stroke-linejoin="round" stroke-linecap="round" stroke="#41EAD4"/>
<path d="M28 44V31H20L20 44" stroke-width="2.0" stroke-linejoin="round" stroke-linecap="round" stroke="white"/>
<path d="M18 44L30 44" stroke-width="2.0" stroke-linejoin="round" stroke-linecap="round" stroke="#41EAD4"/>
</svg>